<?xml version="1.0" encoding="UTF-8" standalone="no"?>
<!-- Created with Inkscape (http://www.inkscape.org/) -->

<svg
   xmlns:dc="http://purl.org/dc/elements/1.1/"
   xmlns:cc="http://creativecommons.org/ns#"
   xmlns:rdf="http://www.w3.org/1999/02/22-rdf-syntax-ns#"
   xmlns:svg="http://www.w3.org/2000/svg"
   xmlns="http://www.w3.org/2000/svg"
   xmlns:sodipodi="http://sodipodi.sourceforge.net/DTD/sodipodi-0.dtd"
   xmlns:inkscape="http://www.inkscape.org/namespaces/inkscape"
   version="1.1"
   id="svg2"
   xml:space="preserve"
   width="1122.52"
   height="793.70667"
   viewBox="0 0 1122.52 793.70667"
   sodipodi:docname="xv-podcasts.svg"
   inkscape:version="0.92.3 (2405546, 2018-03-11)"><metadata
     id="metadata8"><rdf:RDF><cc:Work
         rdf:about=""><dc:format>image/svg+xml</dc:format><dc:type
           rdf:resource="http://purl.org/dc/dcmitype/StillImage" /><dc:title></dc:title></cc:Work></rdf:RDF></metadata><defs
     id="defs6"><clipPath
       clipPathUnits="userSpaceOnUse"
       id="clipPath18"><path
         d="M 0,595.28 H 841.89 V 0 H 0 Z"
         id="path16"
         inkscape:connector-curvature="0" /></clipPath></defs><sodipodi:namedview
     pagecolor="#ffffff"
     bordercolor="#666666"
     borderopacity="1"
     objecttolerance="10"
     gridtolerance="10"
     guidetolerance="10"
     inkscape:pageopacity="0"
     inkscape:pageshadow="2"
     inkscape:window-width="1920"
     inkscape:window-height="1017"
     id="namedview4"
     showgrid="false"
     inkscape:zoom="0.40945319"
     inkscape:cx="1116.7334"
     inkscape:cy="330.91593"
     inkscape:window-x="-8"
     inkscape:window-y="-8"
     inkscape:window-maximized="1"
     inkscape:current-layer="g10" /><g
     id="g10"
     inkscape:groupmode="layer"
     inkscape:label="xv"
     transform="matrix(1.3333333,0,0,-1.3333333,0,793.70667)"><g
       id="g923"
       transform="translate(-0.00101388,76.452639)"><g
         transform="matrix(0.32303023,0,0,-0.32303023,447.66891,381.66889)"
         id="g889"><g
           id="g903"><path
             id="path885"
             d="m 226,250 h -74.521 c 5.053,53.224 49.997,95 104.521,95 54.524,0 99.469,-41.776 104.522,-95 H 286 v -30 h 75 v -30 h -75 v -30 h 75 v -30 h -75 v -30 h 74.878 C 358.259,44.416 312.221,0 256,0 199.779,0 153.741,44.416 151.122,100 H 226 v 30 h -75 v 30 h 75 v 30 h -75 v 30 h 75 z"
             inkscape:connector-curvature="0"
             style="fill:#ff8200;fill-opacity:1;stroke:#000008;stroke-width:6.72354507;stroke-miterlimit:4;stroke-dasharray:none;stroke-opacity:1" /><path
             id="path887"
             d="m 391,190 v 50 c 0,74.44 -60.56,135 -135,135 -74.44,0 -135,-60.56 -135,-135 0,-21.449 0,-26.562 0,-50 H 91 v 50 c 0,85.925 66.023,156.707 150,164.311 V 482 h -60 v 30 H 331 V 482 H 271 V 404.311 C 354.978,396.707 421,325.925 421,240 v -50 z"
             inkscape:connector-curvature="0"
             style="fill:#ff8200;fill-opacity:1;stroke:#000008;stroke-width:6.72354507;stroke-miterlimit:4;stroke-dasharray:none;stroke-opacity:1" /></g></g><text
         id="text74"
         style="font-variant:normal;font-weight:normal;font-stretch:normal;font-size:117.84490204px;font-family:ChunkFive;-inkscape-font-specification:ChunkFive;writing-mode:lr-tb;fill:#000000;fill-opacity:1;fill-rule:nonzero;stroke:none"
         transform="matrix(1,0,0,-1,457.999,136.1611)"><tspan
           id="tspan72"
           sodipodi:role="line"
           y="0"
           x="0 76.481339">xv</tspan></text>
<text
         y="-74.919899"
         x="275.89651"
         id="text78"
         style="font-variant:normal;font-weight:normal;font-stretch:normal;font-size:45.28549957px;font-family:ChunkFive;-inkscape-font-specification:ChunkFive;writing-mode:lr-tb;fill:#000000;fill-opacity:1;fill-rule:nonzero;stroke:none"
         transform="scale(1,-1)"><tspan
           style="font-size:75px"
           y="-74.919899"
           x="275.89651"
           id="tspan76"
           sodipodi:role="line">podcasts</tspan></text>
<g
         id="g12"><g
           clip-path="url(#clipPath18)"
           id="g14"><g
             transform="translate(432.3818,151.5186)"
             id="g64"><path
               inkscape:connector-curvature="0"
               id="path66"
               style="fill:#000000;fill-opacity:1;fill-rule:nonzero;stroke:none"
               d="m 0,0 -5.902,-5.003 -6.787,-3.564 c -4.312,-2.394 -9.487,-4.488 -15.514,-6.277 l -38.791,-0.36 c -7.81,0.132 -16.264,1.352 -25.374,3.662 l -15.923,8.043 -23.265,10.854 c 0.886,1.014 2.95,1.419 6.198,1.211 3.342,-0.642 5.648,-0.507 6.917,0.41 l 5.327,1.439 c -0.906,2.921 -3.008,4.798 -6.311,5.624 l -5.019,0.964 -5.018,0.98 -2.845,1.014 -7.111,3.662 -8.959,1.356 -6.671,0.46 c -2.923,0.729 -5.492,2.409 -7.717,5.033 0.011,0.816 0.475,1.423 1.39,1.814 l 3.205,0.427 3.793,-0.966 4.284,-1.372 5.965,-0.916 c 1.211,-0.099 2.785,0.432 4.726,1.584 -0.174,1.702 -1.55,3.186 -4.119,4.448 -2.531,0.646 -4.446,1.652 -5.755,3.026 -2.738,6.257 -9.822,12.077 -21.253,17.459 -11.191,4.699 -18.184,8.435 -20.975,11.215 1.113,1.985 3.294,2.872 6.542,2.664 l 4.723,-2.124 5.018,-2.208 32.19,-12.179 c 0.261,3.433 -1.136,7.291 -4.186,11.575 l -7.535,9.334 c 0.695,2.713 -0.29,6.162 -2.96,10.35 -2.595,3.554 -3.84,6.757 -3.744,9.611 l -7.194,5.854 -5.638,5.769 c -2.661,2.519 -4.62,5.391 -5.87,8.617 l -9.009,3.499 c -4.847,1.233 -7.527,4.491 -8.042,9.775 0.742,2.922 2.1,4.229 4.07,3.923 l 5.952,-9.546 c 1.307,-1.361 3.511,-2.437 6.604,-3.223 0.718,-2.034 2.729,-3.473 6.034,-4.316 l 4.64,-1.176 3.566,-1.846 15.04,-10.316 c 0.869,1.027 1.195,2.705 0.961,5.036 l -0.652,3.562 1.752,2.028 c -0.714,2.875 -2.78,6.503 -6.213,10.87 -3.576,3.808 -5.6,7.618 -6.066,11.446 l -6.097,6.505 c -3.054,2.627 -4.654,5.297 -4.791,8.013 l 2.469,1.241 21.597,-13.846 2.485,4.936 0.589,3.596 0.685,3.826 c 0.237,0.972 -1.244,3.718 -4.448,8.239 -2.608,3.557 -3.461,7.081 -2.564,10.579 -3.035,5.931 -7.908,12.319 -14.634,19.176 -7.12,6.136 -14.591,12.055 -22.43,17.751 l -3.171,5.772 c 1.66,2.466 4.625,3.155 8.894,2.076 l 3.614,-1.535 13.046,-15.695 5.425,-5.41 6.768,-3.876 c 6.147,-6.708 13.674,-11.201 22.594,-13.47 6.776,-1.723 13.56,-1.785 20.355,-0.197 0.161,1.396 1.066,2.509 2.712,3.337 l 3.288,1.943 -0.656,2.338 -9.565,12.328 -9.119,10.364 c 4.846,-1.219 9.588,-4.488 14.224,-9.809 l 11.099,-13.634 4.2,-1.699 c 1.755,-0.448 3.342,-0.485 4.772,-0.117 1.43,0.36 2.704,1.535 3.83,3.515 l 0.817,3.204 -18.621,22.986 0.882,3.5 c 5.819,-1.48 11.706,-7.153 17.656,-17.019 5.957,-9.872 11.558,-15.473 16.788,-16.808 2.519,-0.628 5.63,-0.589 9.337,0.116 l -0.23,2.845 1.259,1.226 2.552,1.504 2.695,2.126 -0.996,4.561 -3.042,10.072 c -1.203,4.228 -1.382,7.986 -0.539,11.277 1.068,0.156 2.444,-0.09 4.137,-0.732 1.068,-0.689 2.764,-3.799 5.085,-9.336 0.021,-6.396 0.882,-12.344 2.582,-17.836 1.702,-5.495 4.583,-10.812 8.649,-15.955 l 6.441,-5.055 c 1.261,-1.555 2.281,-3.256 3.057,-5.101 l 1.16,-0.293 1.388,0.574 2.077,9.368 c 0.293,1.166 0.675,3.084 1.145,5.753 0.467,2.672 0.874,5.926 1.226,9.76 0.824,3.293 1.197,6.599 1.11,9.922 -0.077,3.328 -0.439,7.341 -1.094,12.05 0.97,1.397 2.112,2.237 3.418,2.533 1.361,-0.346 2.325,-1.005 2.893,-1.978 l 0.41,-9.385 -0.687,-10.054 0.128,-4.364 1.669,-20.239 c -1.462,-3.333 -0.727,-7.953 2.207,-13.863 2.944,-5.906 3.901,-10.892 2.88,-14.958 l 1.076,-1.833 c 1.546,-0.392 3.177,0.95 4.89,4.023 1.706,3.075 3.921,4.268 6.635,3.58 0.425,-1.556 0.801,-4.545 1.128,-8.958 l -1.863,-10.971 3.613,-7.729 c 1.69,-3.934 3.258,-6.706 4.709,-8.308 l 2.501,6.179 c 0.335,1.354 1.601,2.677 3.792,3.973 2.181,-3.636 3.253,-10.612 3.222,-20.923 C 21.758,78.576 22.729,71.62 24.701,68.025 L 23.378,47.002 22.64,39.138 20.714,30.324 19.765,26.549 18.425,22.561 Z m -67.844,186.532 c -1.563,0.392 -2.793,1.223 -3.699,2.486 l -3.956,9.973 c 0.395,1.546 0.827,2.467 1.308,2.762 l 2.192,0.065 4.201,-9.123 z" /></g><g
             transform="translate(391.9487,314.0723)"
             id="g68"><path
               inkscape:connector-curvature="0"
               id="path70"
               style="fill:#ff8200;fill-opacity:1;fill-rule:nonzero;stroke:none"
               d="m 0,0 c 1.34,-7.436 1.609,-15.872 0.8,-25.308 l -2.484,-28.511 c -0.882,-10.422 -0.922,-19.741 -0.132,-27.955 0.21,-0.11 0.389,-0.188 0.539,-0.228 1.987,-0.45 6.002,2.689 12.052,9.415 3.856,4.324 6.773,7.063 8.745,8.209 2.483,-0.57 4.72,-2.217 6.701,-4.939 1.975,-2.725 2.722,-5.195 2.242,-7.405 -2.048,-3.87 -6.589,-7.842 -13.622,-11.918 l -9.397,-5.474 c 0.555,-0.199 1.189,-0.373 1.895,-0.526 l 1.717,-0.39 c 2.987,-0.69 11.161,-1.404 24.521,-2.143 6.5,-0.359 12.016,-1.058 16.563,-2.093 0.856,-3.556 1.02,-6.533 0.491,-8.928 -0.581,-2.627 -1.771,-4.322 -3.581,-5.082 -3.368,-1.418 -7.487,-1.807 -12.36,-1.162 -2.527,0.38 -7.602,1.079 -15.221,2.093 -5.011,0.674 -9.244,0.784 -12.701,0.326 0.718,-1.09 3.874,-5.21 9.467,-12.358 8.056,-10.266 13.761,-20.665 17.114,-31.191 -1.34,-1.333 -3.311,-2.495 -5.92,-3.484 -2.602,-0.981 -4.828,-1.267 -6.686,-0.849 -0.574,0.13 -1.118,0.352 -1.633,0.671 -2.851,2.688 -6.522,7.772 -11.003,15.252 l -10.233,17.084 c -0.882,-4.023 -1.096,-11.918 -0.637,-23.689 0.11,-2.606 0.407,-9.899 0.897,-21.874 0.08,-0.273 0.093,-0.539 0.035,-0.801 l -0.133,-0.555 c -0.465,-2.138 -6.179,-1.958 -17.13,0.539 -1.331,3.801 -1.89,8.714 -1.687,14.73 l 1.178,40.87 c -3.324,-1.551 -7.526,-4.381 -12.618,-8.501 -2.292,-1.855 -7.065,-5.87 -14.325,-12.049 -5.894,-5.059 -10.387,-8.681 -13.484,-10.871 -1.285,-0.358 -2.494,-0.409 -3.631,-0.148 -1.427,0.326 -3.171,1.244 -5.23,2.748 -3.335,2.473 -5.527,4.029 -6.573,4.674 1.635,3.377 9.853,10.467 24.652,21.271 5.965,4.379 10.284,8.436 12.967,12.161 -10.015,2.288 -22.391,4.06 -37.13,5.314 -5.642,0.5 -12.842,1.054 -21.595,1.667 -1.023,-0.22 -2.034,-0.22 -3.042,0 -4.257,0.982 -5.753,4.352 -4.479,10.12 0.439,2.015 1.152,3.899 2.143,5.657 5.714,0.87 13.35,0.809 22.903,-0.18 1.112,-0.132 9.931,-1.358 26.452,-3.678 10.508,-1.474 19.103,-2.282 25.781,-2.42 -1.963,4.27 -7.132,13.132 -15.514,26.581 -3.258,5.232 -5.51,9.11 -6.752,11.64 -0.131,0.754 -0.131,1.413 0,1.978 0.198,0.873 2.04,2.457 5.526,4.758 2.019,1.329 3.677,2.926 4.984,4.789 2.289,-1.762 4.541,-4.609 6.754,-8.533 l 6.489,-11.69 c 2.725,-4.904 5.191,-8.463 7.391,-10.674 -0.514,5.788 -0.262,15.193 0.752,28.218 l 3.156,41.195 c -0.132,0.763 -0.132,1.462 0,2.093 0.422,1.872 2.132,2.832 5.114,2.878 C -6.957,1.346 -3.991,0.906 0,0" /></g></g></g></g><rect
       style="opacity:1;fill:none;fill-opacity:1;fill-rule:evenodd;stroke:#000008;stroke-width:5.06345606;stroke-miterlimit:4;stroke-dasharray:none;stroke-opacity:1"
       id="rect905"
       width="506.34561"
       height="506.34561"
       x="167.77222"
       y="-550.81281"
       transform="scale(1,-1)"
       ry="0.15099682" /></g></svg>